<?xml version="1.0" encoding="UTF-8"?>
<svg id="Layer_1" data-name="Layer 1" xmlns="http://www.w3.org/2000/svg" viewBox="0 0 80 50">
  <g id="outline">
    <path id="Path_83" data-name="Path 83" d="M69.84,9.08h-15.86c-.58,0-1.06.47-1.06,1.06v12.69c0,.58.47,1.06,1.06,1.06h15.86c.58,0,1.06-.47,1.06-1.06v-12.69c0-.58-.47-1.06-1.06-1.06ZM68.78,21.77h-13.75v-10.58h5.82v1.06c0,.58.47,1.06,1.06,1.06s1.06-.47,1.06-1.06v-1.06h5.82v10.58Z" style="fill: #000; stroke-width: 0px;"/>
    <path id="Path_84" data-name="Path 84" d="M78.83,25.71h-15.86c-.58,0-1.06.47-1.06,1.06v12.69c0,.58.47,1.06,1.06,1.06h15.86c.58,0,1.06-.47,1.06-1.06v-12.69c0-.58-.47-1.06-1.06-1.06ZM77.77,38.4h-13.75v-10.58h5.82v1.06c0,.58.47,1.06,1.06,1.06s1.06-.47,1.06-1.06v-1.06h5.82v10.58Z" style="fill: #000; stroke-width: 0px;"/>
    <path id="Path_85" data-name="Path 85" d="M57.53,25.71h-15.86c-.58,0-1.06.47-1.06,1.06v12.69c0,.58.47,1.06,1.06,1.06h15.86c.58,0,1.06-.47,1.06-1.06v-12.69c0-.58-.47-1.06-1.06-1.06ZM56.48,38.4h-13.75v-10.58h5.82v1.06c0,.58.47,1.06,1.06,1.06s1.06-.47,1.06-1.06v-1.06h5.82v10.58Z" style="fill: #000; stroke-width: 0px;"/>
    <path id="Path_86" data-name="Path 86" d="M41.53,23.56c.56-.15.9-.73.75-1.29,0,0,0,0,0,0l-.93-3.48,3.17-2.67.08-.07c2.11-2.22,3.69-4.9,4.62-7.82.73-2.32,1.04-4.74.9-7.17-.03-.53-.44-.95-.97-.99-2.39-.17-4.79.09-7.09.79-3.01.94-5.76,2.58-8,4.8l-2.69,3.16-6.26-1.7c.41-.41.41-1.08,0-1.5-.41-.41-1.08-.41-1.5,0l-.74.74c-.04.05-.08.11-.12.17l-4.75-1.28.38-.38c.41-.41.42-1.08,0-1.5s-1.08-.42-1.5,0l-1.29,1.23L6.5,2.17c-.46-.13-.95.07-1.19.49l-2.46,4.39c-.3.49-.14,1.13.35,1.42.01,0,.03.02.04.03l19.12,10.89-10.58,12.38-9.03-.97c-.39-.04-.76.13-.98.46l-1.47,2.14c-.33.49-.19,1.16.3,1.48.05.03.1.06.15.08l7.93,3.54,2.99,2.99,3.54,7.93c.13.28.38.5.68.58.09.02.19.02.29,0,.22,0,.43-.06.61-.18l2.19-1.49c.32-.22.5-.6.46-.99l-.97-9.01,10.18-8.7,2.18-1.86,5.71,10.02c.29.51.94.68,1.45.38.5-.29.67-.93.39-1.43l-5.91-10.34,7.12-6.08.68,2.51c.15.56.73.9,1.29.75h0ZM5.2,7.12l1.58-2.71,23.05,6.15-6.08,7.13L5.2,7.12ZM39.47,17.61l-9.07,7.73-3.17,2.7-10.57,9.07c-.27.23-.4.57-.36.92l.95,8.94-.62.42-3.14-6.96c-.05-.12-.13-.23-.22-.32l-3.27-3.27c-.09-.09-.19-.16-.31-.21l-6.93-3.11.42-.62,8.95.95c.35.04.69-.1.92-.36l19.48-22.85,3.02-3.53c1.99-1.95,4.41-3.41,7.07-4.23,1.74-.54,3.55-.79,5.36-.76,0,1.85-.27,3.7-.84,5.46-.81,2.59-2.19,4.97-4.05,6.95l-3.63,3.08Z" style="fill: #000; stroke-width: 0px;"/>
    <path id="Path_87" data-name="Path 87" d="M37.89,13.76l-11.22,9.71c-.43.4-.45,1.07-.06,1.49.38.41,1.01.45,1.44.1l11.22-9.71c.43-.4.45-1.07.06-1.49-.38-.41-1.01-.45-1.44-.1Z" style="fill: #000; stroke-width: 0px;"/>
    <path id="Path_88" data-name="Path 88" d="M15.43,33.23l-2.11,2.11c-.41.41-.41,1.08,0,1.49s1.08.41,1.49,0h0l2.11-2.11c.38-.44.33-1.11-.12-1.49-.4-.34-.98-.34-1.37,0Z" style="fill: #000; stroke-width: 0px;"/>
  </g>
</svg>