<svg id="line" viewBox="0 0 64 64" fill="#ffff" xmlns="http://www.w3.org/2000/svg"><path d="m46.507 40.935h-10.667a1 1 0 0 0 0 2h10.667a1 1 0 0 0 0-2z"/><path d="m43.84 45.83h-7.872a1 1 0 0 0 0 2h7.872a1 1 0 0 0 0-2z"/><path d="m55 6.617h-46a5 5 0 0 0 -5 5v33.54a5.008 5.008 0 0 0 5 5h20.53a13.033 13.033 0 0 0 17.38 5.9l6.41 1.3a1 1 0 0 0 1.13-1.34l-2-5.16c.13-.23.26-.46.37-.7h2.18a5.008 5.008 0 0 0 5-5v-33.54a5 5 0 0 0 -5-5zm-46 2h46a3 3 0 0 1 2.97 2.61l-24.31 14.78a3.135 3.135 0 0 1 -3.45.1l-24.18-14.88a3 3 0 0 1 2.97-2.61zm41.41 42.51 1.52 3.91-4.97-1.01a.948.948 0 0 0 -.66.09 10.975 10.975 0 1 1 4.19-3.88 1.028 1.028 0 0 0 -.08.89zm7.59-5.97a3.009 3.009 0 0 1 -3 3h-1.39a13 13 0 1 0 -25.44-3.78 12.813 12.813 0 0 0 .57 3.78h-19.74a3.009 3.009 0 0 1 -3-3v-31.6l23.16 14.25a5.147 5.147 0 0 0 2.72.77 5.041 5.041 0 0 0 2.87-.89l23.25-14.15z"/></svg>