<?xml version="1.0" encoding="UTF-8"?>
<svg id="Layer_1" data-name="Layer 1" xmlns="http://www.w3.org/2000/svg" viewBox="0 0 100 100">
  <defs>
    <style>
      .cls-1 {
        fill: #fff;
        strokeWidth: 0px;
      }
    </style>
  </defs>
  <g>
    <path class="cls-1" d="M65.95,64.84c-2.8,0-5.59-1.06-7.72-3.19-2.06-2.06-3.2-4.81-3.2-7.72s1.14-5.66,3.2-7.72c2.06-2.06,4.81-3.2,7.72-3.2s5.66,1.14,7.72,3.2c2.06,2.06,3.2,4.81,3.2,7.72s-1.14,5.66-3.2,7.72h0c-2.13,2.13-4.93,3.19-7.72,3.19ZM65.95,44.41c-2.44,0-4.88.93-6.73,2.78-1.8,1.8-2.79,4.19-2.79,6.73s.99,4.93,2.79,6.73c3.71,3.71,9.75,3.71,13.47,0,1.8-1.8,2.79-4.19,2.79-6.73s-.99-4.93-2.79-6.73c-1.86-1.86-4.29-2.78-6.73-2.78Z"/>
    <path class="cls-1" d="M84.74,92.57h-37.59c-1.69,0-3.24-.69-4.38-1.93-1.14-1.24-1.7-2.93-1.55-4.61.62-6.86,3.96-13.01,9.41-17.31,8.87-7,21.76-7,30.63,0,5.45,4.3,8.79,10.45,9.41,17.31h0c.15,1.69-.41,3.37-1.55,4.61-1.14,1.25-2.69,1.93-4.38,1.93ZM65.95,64.86c-5.13,0-10.26,1.65-14.45,4.95-5.15,4.06-8.3,9.86-8.88,16.33-.12,1.3.32,2.59,1.19,3.55.87.95,2.06,1.47,3.35,1.47h37.59c1.29,0,2.48-.52,3.35-1.47.87-.96,1.31-2.25,1.19-3.55h0c-.58-6.47-3.73-12.27-8.88-16.33-4.19-3.3-9.32-4.95-14.45-4.95Z"/>
  </g>
  <g>
    <path class="cls-1" d="M34.05,64.84c-2.8,0-5.59-1.06-7.72-3.19-4.26-4.26-4.26-11.19,0-15.45,2.06-2.06,4.81-3.2,7.72-3.2s5.66,1.14,7.72,3.2c2.06,2.06,3.2,4.81,3.2,7.72s-1.14,5.66-3.2,7.72h0c-2.13,2.13-4.93,3.19-7.72,3.19ZM34.05,44.41c-2.44,0-4.88.93-6.73,2.78-3.71,3.71-3.71,9.75,0,13.47,3.71,3.71,9.75,3.71,13.47,0,1.8-1.8,2.79-4.19,2.79-6.73s-.99-4.93-2.79-6.73c-1.86-1.86-4.29-2.78-6.73-2.78Z"/>
    <path class="cls-1" d="M52.84,92.57H15.26c-1.69,0-3.24-.69-4.38-1.93-1.14-1.24-1.7-2.93-1.55-4.62.62-6.86,3.96-13.01,9.41-17.31,8.88-7,21.76-7,30.63,0,5.45,4.3,8.79,10.45,9.41,17.31h0c.15,1.69-.41,3.37-1.55,4.61-1.14,1.25-2.69,1.93-4.38,1.93ZM34.05,64.86c-5.13,0-10.26,1.65-14.45,4.95-5.15,4.06-8.3,9.86-8.88,16.33-.12,1.3.32,2.59,1.19,3.55.87.95,2.06,1.47,3.35,1.47h37.59c1.29,0,2.48-.52,3.35-1.47.87-.96,1.31-2.25,1.19-3.55h0c-.58-6.47-3.73-12.27-8.88-16.33-4.19-3.3-9.32-4.95-14.45-4.95Z"/>
  </g>
  <g>
    <path class="cls-1" d="M39.58,37.52h-2.95c-1.35,0-2.49-1.01-2.65-2.36l-.26-2.04c-.37-.13-.73-.28-1.09-.45l-1.62,1.26c-1.08.84-2.61.74-3.55-.23l-2.07-2.07c-.96-.93-1.06-2.45-.22-3.53l1.26-1.63c-.17-.35-.32-.72-.45-1.09l-2.04-.26c-1.34-.16-2.35-1.31-2.35-2.66v-2.95c0-1.35,1.01-2.49,2.36-2.65l2.04-.26c.13-.37.28-.73.45-1.09l-1.26-1.62c-.84-1.08-.74-2.61.23-3.55l2.07-2.07c.93-.96,2.45-1.06,3.53-.22l1.63,1.26c.35-.17.72-.32,1.09-.45l.26-2.05c.16-1.34,1.3-2.35,2.65-2.35h2.95c1.35,0,2.49,1.01,2.65,2.36l.26,2.04c.37.13.73.28,1.09.45l1.62-1.26c1.08-.83,2.61-.74,3.55.23l2.07,2.07c.96.93,1.06,2.45.22,3.53l-1.26,1.63c.17.35.32.72.45,1.09l2.04.26c1.34.16,2.35,1.3,2.35,2.65v2.95c0,1.35-1.01,2.49-2.36,2.65l-2.04.26c-.13.37-.28.73-.45,1.09l1.26,1.62c.84,1.08.74,2.61-.23,3.55l-2.07,2.07c-.93.96-2.46,1.06-3.53.22l-1.62-1.26c-.35.17-.72.32-1.09.45l-.26,2.04c-.16,1.34-1.3,2.35-2.65,2.35ZM32.46,31.03l.4.2c.54.28,1.12.52,1.71.71l.42.14.37,2.91c.08.65.62,1.13,1.26,1.13h2.95c.64,0,1.19-.48,1.26-1.12l.37-2.92.42-.14c.59-.19,1.16-.43,1.71-.71l.4-.2,2.32,1.8c.52.4,1.24.36,1.68-.1l2.08-2.08c.47-.45.51-1.18.11-1.69l-1.8-2.32.2-.4c.28-.55.52-1.12.71-1.71l.14-.42,2.91-.37c.65-.08,1.13-.62,1.13-1.26v-2.95c0-.64-.48-1.19-1.12-1.27l-2.92-.37-.14-.42c-.19-.59-.43-1.17-.71-1.71l-.2-.4,1.8-2.32c.4-.52.36-1.24-.09-1.68l-2.08-2.08c-.45-.47-1.18-.51-1.69-.11l-2.32,1.8-.4-.2c-.55-.28-1.12-.52-1.71-.71l-.42-.14-.37-2.91c-.08-.65-.62-1.13-1.26-1.13h-2.95c-.64,0-1.19.48-1.26,1.12l-.37,2.92-.42.14c-.59.19-1.16.43-1.71.71l-.4.2-2.32-1.8c-.51-.4-1.24-.36-1.68.1l-2.08,2.08c-.47.45-.51,1.18-.11,1.69l1.8,2.32-.2.4c-.28.55-.52,1.12-.71,1.71l-.14.42-2.91.37c-.65.08-1.13.62-1.13,1.26v2.95c0,.64.48,1.19,1.12,1.27l2.92.37.14.42c.19.59.43,1.16.71,1.71l.2.4-1.8,2.32c-.4.52-.36,1.24.09,1.68l2.08,2.08c.45.46,1.17.51,1.69.11l2.32-1.8Z"/>
    <path class="cls-1" d="M38.1,28.29c-4.02,0-7.29-3.27-7.29-7.29s3.27-7.29,7.29-7.29,7.29,3.27,7.29,7.29-3.27,7.29-7.29,7.29ZM38.1,15.11c-3.25,0-5.89,2.64-5.89,5.89s2.64,5.89,5.89,5.89,5.89-2.64,5.89-5.89-2.64-5.89-5.89-5.89Z"/>
  </g>
  <g>
    <path class="cls-1" d="M70.35,39.49h-2.09c-1.06,0-1.96-.8-2.08-1.85l-.17-1.32c-.19-.07-.37-.15-.56-.23l-1.05.82c-.85.66-2.05.58-2.79-.18l-1.46-1.46c-.75-.73-.83-1.92-.17-2.77l.82-1.05c-.08-.18-.16-.37-.23-.56l-1.33-.17c-1.05-.13-1.84-1.02-1.84-2.08v-2.09c0-1.06.79-1.96,1.85-2.08l1.32-.17c.07-.19.15-.37.23-.56l-.82-1.05c-.66-.85-.58-2.05.18-2.79l1.46-1.46c.73-.75,1.92-.83,2.77-.17l1.05.82c.18-.08.37-.16.56-.23l.17-1.33c.13-1.05,1.02-1.84,2.08-1.84h2.09c1.06,0,1.96.8,2.08,1.85l.17,1.32c.19.07.37.15.56.23l1.05-.82c.85-.66,2.05-.58,2.79.18l1.46,1.46c.75.73.83,1.93.17,2.77l-.82,1.05c.08.18.16.37.23.56l1.33.17c1.05.13,1.84,1.02,1.84,2.08v2.09c0,1.06-.79,1.96-1.85,2.08l-1.32.17c-.07.19-.15.37-.23.56l.82,1.05c.66.85.58,2.04-.18,2.79l-1.46,1.46c-.73.75-1.92.83-2.77.17l-1.05-.82c-.18.08-.37.16-.56.23l-.17,1.33c-.13,1.05-1.02,1.84-2.08,1.84ZM65.28,34.45l.4.2c.38.19.77.36,1.18.49l.42.14.28,2.19c.04.36.34.62.69.62h2.09c.35,0,.65-.26.69-.61l.28-2.2.42-.14c.41-.13.8-.3,1.18-.49l.4-.2,1.75,1.36c.28.22.68.2.92-.05l1.48-1.48c.26-.25.28-.65.06-.93l-1.36-1.75.2-.4c.19-.37.36-.77.49-1.18l.14-.42,2.19-.28c.36-.04.62-.34.62-.69v-2.09c0-.35-.26-.65-.61-.69l-2.2-.28-.14-.42c-.13-.41-.3-.8-.49-1.18l-.2-.4,1.36-1.75c.22-.28.2-.68-.05-.92l-1.48-1.48c-.25-.26-.64-.28-.93-.06l-1.74,1.36-.4-.2c-.38-.19-.77-.36-1.18-.49l-.42-.14-.28-2.19c-.04-.36-.34-.62-.69-.62h-2.09c-.35,0-.65.26-.69.61l-.28,2.2-.42.14c-.41.13-.8.3-1.18.49l-.4.2-1.75-1.36c-.28-.22-.68-.2-.92.05l-1.48,1.48c-.26.25-.28.65-.06.93l1.36,1.75-.2.4c-.19.37-.36.77-.49,1.18l-.14.42-2.19.28c-.36.04-.62.34-.62.69v2.09c0,.35.26.65.61.69l2.2.28.14.42c.13.41.3.81.49,1.18l.2.4-1.36,1.75c-.22.28-.2.68.05.92l1.48,1.48c.25.26.65.28.93.06l1.74-1.36Z"/>
    <path class="cls-1" d="M69.3,32.96c-2.96,0-5.37-2.41-5.37-5.37s2.41-5.37,5.37-5.37,5.37,2.41,5.37,5.37-2.41,5.37-5.37,5.37ZM69.3,23.62c-2.19,0-3.97,1.78-3.97,3.97s1.78,3.97,3.97,3.97,3.97-1.78,3.97-3.97-1.78-3.97-3.97-3.97Z"/>
  </g>
</svg>