<?xml version="1.0" encoding="UTF-8"?>
<svg id="Layer_1" data-name="Layer 1" xmlns="http://www.w3.org/2000/svg" viewBox="0 0 100 100">
  <defs>
    <style>
      .cls-1 {
        fill: none;
        strokeLinecap: round;
        strokeWidth: 1.6px;
      }

      .cls-1, .cls-2 {
        stroke: #fff;
      }

      .cls-2 {
        fill: #fff;
        strokeWidth: .5px;
      }
    </style>
  </defs>
  <g id="Group_265" data-name="Group 265">
    <path id="quality-control" class="cls-2" d="M70.06,63.84l-7.7-7.47c-.61-.59-1.52-.71-2.26-.3l-3.63-3.52c4.34-6.86,2.29-15.93-4.57-20.27-6.86-4.34-15.93-2.29-20.27,4.57-4.34,6.86-2.29,15.93,4.57,20.27,5.31,3.35,12.16,2.97,17.05-.97l3.44,3.34c-.56.77-.47,1.84.22,2.5l7.7,7.47c.76.74,1.97.72,2.71-.04l2.78-2.86c.74-.76.72-1.97-.04-2.71ZM30.7,44.72c0-7.39,5.99-13.37,13.37-13.37s13.37,5.99,13.37,13.37-5.99,13.37-13.37,13.37h0c-7.38,0-13.36-5.99-13.37-13.37ZM55.73,53.62l3.42,3.32-1.56,1.61-3.35-3.25c.54-.52,1.04-1.08,1.49-1.68h0ZM69.18,65.66l-2.78,2.86c-.24.25-.64.26-.89.01h0s-7.7-7.47-7.7-7.47c-.25-.24-.25-.64-.01-.89l2.78-2.86c.12-.12.28-.19.45-.19h.01c.16,0,.32.06.44.18l7.7,7.47c.25.24.26.64.01.89ZM44.07,33.62c-6.14,0-11.11,4.97-11.11,11.11s4.97,11.11,11.11,11.11,11.11-4.97,11.11-11.11h0c0-6.13-4.98-11.1-11.11-11.11ZM44.07,54.55c-5.42,0-9.82-4.4-9.82-9.82s4.4-9.82,9.82-9.82,9.82,4.4,9.82,9.82h0c0,5.42-4.4,9.81-9.82,9.81h0ZM50.9,39.77c-.81-.81-2.13-.8-2.93,0,0,0,0,0,0,0l-2.69,2.73-2.73,2.76-2.36-2.36c-.81-.81-2.13-.81-2.94,0-.81.81-.81,2.13,0,2.94l3.84,3.84c.81.81,2.13.81,2.94,0h0c1.64-1.64,2.81-2.84,4.06-4.1.85-.87,1.73-1.76,2.83-2.87.81-.81.8-2.12,0-2.93h0ZM49.99,41.79c-1.1,1.12-1.99,2.01-2.84,2.88-1.24,1.26-2.41,2.46-4.05,4.09-.31.31-.81.31-1.12,0,0,0,0,0,0,0l-3.84-3.84c-.31-.31-.31-.81,0-1.12.31-.31.81-.31,1.12,0h0l2.82,2.82c.12.12.28.19.46.19h0c.17,0,.34-.07.46-.19l5.87-5.94c.15-.15.35-.23.56-.23h0c.43,0,.79.34.79.77,0,.21-.08.42-.23.57h0Z"/>
    <g id="Group_262" data-name="Group 262">
      <line id="Line_16" data-name="Line 16" class="cls-1" x1="39.12" y1="63.28" x2="51.39" y2="63.28"/>
      <line id="Line_17" data-name="Line 17" class="cls-1" x1="35.77" y1="63.28" x2="33.54" y2="63.28"/>
    </g>
    <g id="Group_263" data-name="Group 263">
      <line id="Line_16-2" data-name="Line 16-2" class="cls-1" x1="39.12" y1="66.63" x2="51.39" y2="66.63"/>
      <line id="Line_17-2" data-name="Line 17-2" class="cls-1" x1="35.77" y1="66.63" x2="33.54" y2="66.63"/>
    </g>
    <g id="Group_264" data-name="Group 264">
      <line id="Line_16-3" data-name="Line 16-3" class="cls-1" x1="39.12" y1="69.98" x2="51.39" y2="69.98"/>
      <line id="Line_17-3" data-name="Line 17-3" class="cls-1" x1="35.77" y1="69.98" x2="33.54" y2="69.98"/>
    </g>
  </g>
</svg>