<?xml version="1.0" encoding="UTF-8"?>
<svg id="Layer_1" data-name="Layer 1" xmlns="http://www.w3.org/2000/svg" viewBox="0 0 100 100">
  <defs>
    <style>
      .cls-1 {
        fill: #fff;
        strokeWidth: 0px;
      }
    </style>
  </defs>
  <g id="_OUTLINE" data-name=" OUTLINE">
    <path id="Path_943" data-name="Path 943" class="cls-1" d="M42.54,66h1.6v1.33h-1.6v-1.33Z"/>
    <path id="Path_944" data-name="Path 944" class="cls-1" d="M45.74,66h1.6v1.33h-1.6v-1.33Z"/>
    <path id="Path_945" data-name="Path 945" class="cls-1" d="M48.94,66h1.6v1.33h-1.6v-1.33Z"/>
    <path id="Path_946" data-name="Path 946" class="cls-1" d="M52.14,66h1.6v1.33h-1.6v-1.33Z"/>
    <path id="Path_947" data-name="Path 947" class="cls-1" d="M55.33,66h1.6v1.33h-1.6v-1.33Z"/>
    <path id="Path_948" data-name="Path 948" class="cls-1" d="M58.53,66h1.6v1.33h-1.6v-1.33Z"/>
    <path id="Path_949" data-name="Path 949" class="cls-1" d="M61.73,66h1.6v1.33h-1.6v-1.33Z"/>
    <path id="Path_950" data-name="Path 950" class="cls-1" d="M64.93,66h1.07v1.33h-1.07v-1.33Z"/>
    <path id="Path_951" data-name="Path 951" class="cls-1" d="M34,61.33h9.6v2h-2.85c-2.48.06-4.8,1.25-6.28,3.25-.47.63-.6,1.44-.35,2.18.17.69.77,1.19,1.48,1.24h30.4v-1.33h-30.4c-.24-.02-.43-.18-.49-.41-.08-.25-.04-.52.12-.73.06-.07.11-.13.16-.2h3.95c.99-.12,1.7-1.01,1.6-2v-.67h25.07v-1.33h-3.73v-2h3.73v-1.33h-32v1.33ZM39.87,65.33c.03.33-.2.63-.53.67h-2.53c.9-.67,1.95-1.11,3.06-1.27v.6ZM56.4,61.33h4.8v2h-4.8v-2ZM50.54,61.33h4.8v2h-4.8v-2ZM44.67,61.33h4.8v2h-4.8v-2Z"/>
    <path id="Path_952" data-name="Path 952" class="cls-1" d="M38.27,51.33h1.07v1.33h-1.07v-1.33Z"/>
    <path id="Path_953" data-name="Path 953" class="cls-1" d="M44.67,51.33h1.07v1.33h-1.07v-1.33Z"/>
    <path id="Path_954" data-name="Path 954" class="cls-1" d="M50,48v-2c.06-.66-.41-1.25-1.07-1.33h-1.07v-2c.1-.99-.61-1.88-1.6-2h-8.53c-.99.12-1.7,1.01-1.6,2v2h-1.07c-.66.08-1.13.67-1.07,1.33v2h1.07v-2h1.07v7.33c-.04.78.38,1.51,1.07,1.88v1.45c-.1.99.61,1.88,1.6,2,.99-.12,1.7-1.01,1.6-2v-1.33h3.2v1.33c-.1.99.61,1.88,1.6,2,.99-.12,1.7-1.01,1.6-2v-1.45c.69-.37,1.1-1.1,1.07-1.88v-7.33h1.07v2h1.07ZM39.34,42h5.33v1.33h-5.33v-1.33ZM39.34,56.67c.07.29-.12.59-.41.65s-.59-.12-.65-.41c-.02-.08-.02-.16,0-.24v-1.33h1.07v1.33ZM45.74,56.67c.07.29-.12.59-.41.65s-.59-.12-.65-.41c-.02-.08-.02-.16,0-.24v-1.33h1.07v1.33ZM46.8,53.33c.03.33-.2.63-.53.67h-8.53c-.33-.04-.57-.34-.53-.67v-3.33h9.6v3.33ZM46.8,48.67h-9.6v-6c-.03-.33.2-.63.53-.67h.53v1.5c-.06.58.36,1.09.93,1.17h5.6c.58-.07.99-.59.93-1.17v-1.5h.53c.33.04.57.34.53.67v6Z"/>
    <path id="Path_955" data-name="Path 955" class="cls-1" d="M62.74,43.33h-1.1l-.53-3.33h-2.03v-2.67h-1.07v2.67h-2.04l-.53,3.33h-1.1l-.53,5.35-2.73.79v.53c-.09,2.51,1.12,4.89,3.22,6.28l4.25,2.45,4.25-2.45c2.09-1.39,3.31-3.77,3.22-6.28v-.53l-2.73-.79-.54-5.35ZM56.84,41.33h3.39l.32,2h-4.03l.32-2ZM55.27,44.67h6.52l.37,3.7-3.63-1.05-3.63,1.05.37-3.7ZM62.34,55.07l-3.8,2.2-3.8-2.2c-1.54-1.01-2.5-2.7-2.58-4.55l5.85-1.69v5.83h1.07v-5.83l5.85,1.69c-.07,1.84-1.03,3.54-2.57,4.55h0Z"/>
    <path id="Path_956" data-name="Path 956" class="cls-1" d="M35.86,39.33h18.57c.76-.06,1.39-.63,1.52-1.38l2.07-7.95h-3.23l-2.04,4.67h-7.73l2.61-4.67h-4.47l-3.14,4.67h-4.13c-.4,0-.78.15-1.07.42l-.03.03c-.69.67-.95,1.67-.7,2.6.15.88.88,1.55,1.77,1.62ZM35.41,36.21l.03-.03c.12-.11.28-.18.45-.18h4.63l3.14-4.67h1.93l-2.61,4.67h10.41l2.04-4.67h1.13l-1.61,6.21c-.04.25-.25.44-.51.46h-18.58c-.38-.03-.69-.31-.75-.69-.11-.39,0-.82.3-1.1h0Z"/>
    <path id="Path_957" data-name="Path 957" class="cls-1" d="M59.6,31.33h6.4v1.33h-6.4v-1.33Z"/>
    <path id="Path_958" data-name="Path 958" class="cls-1" d="M58,34.67h5.87v1.33h-5.87v-1.33Z"/>
  </g>
</svg>