<?xml version="1.0" encoding="UTF-8"?>
<svg id="Layer_1" data-name="Layer 1" xmlns="http://www.w3.org/2000/svg" viewBox="0 0 100 100">
  <defs>
    <style>
      .cls-1 {
        fill: #fff;
        strokeWidth: 0px;
      }
    </style>
  </defs>
  <path class="cls-1" d="M89.33,31.23c.37,0,.67-.3.67-.67V10.94c0-.37-.3-.67-.67-.67h-21.58c-.37,0-.67.3-.67.67v19.63c0,.37.3.67.67.67h21.58ZM81.16,11.61v5.66h-5.23v-5.66s5.23,0,5.23,0ZM68.42,11.61h6.16v5.05c0,1.07.75,1.95,1.67,1.95h4.56c.92,0,1.68-.87,1.68-1.95v-5.05h6.16v18.29h-20.24V11.61Z"/>
  <path class="cls-1" d="M79.21,39.81v-8.05c0-.37-.3-.67-.67-.67s-.67.3-.67.67v7.38h-27.2v-7.38c0-.37-.3-.67-.67-.67s-.67.3-.67.67v7.38h-27.2v-7.38c0-.37-.3-.67-.67-.67s-.67.3-.67.67v8.05c0,.37.3.67.67.67h27.87v9.12c0,.37.3.67.67.67s.67-.3.67-.67v-9.12h27.87c.37,0,.67-.3.67-.67Z"/>
  <path class="cls-1" d="M32.24,10.27H10.67c-.37,0-.67.3-.67.67v19.63c0,.37.3.67.67.67h21.58c.37,0,.67-.3.67-.67V10.94c0-.37-.3-.67-.67-.67ZM24.07,11.61v5.61l-.56.05h-4.62l-.04-.52v-5.14s5.22,0,5.22,0ZM31.57,29.89H11.34V11.61h6.16v5.05c0,1.07.75,1.95,1.67,1.95h4.56c.92,0,1.67-.87,1.67-1.95v-5.05h6.16v18.29Z"/>
  <path class="cls-1" d="M60.79,10.27h-21.58c-.37,0-.67.3-.67.67v19.63c0,.37.3.67.67.67h21.58c.37,0,.67-.3.67-.67V10.94c0-.37-.3-.67-.67-.67ZM52.61,11.61v5.66h-5.19l-.04-.52v-5.14s5.22,0,5.22,0ZM60.12,29.89h-20.24V11.61h6.16v5.05c0,1.07.75,1.95,1.68,1.95h4.56c.92,0,1.67-.87,1.67-1.95v-5.05h6.16v18.29Z"/>
  <path class="cls-1" d="M85.77,68.97l-6-7.5c-.08-.11-.15-.22-.23-.35-.34-.57-.66-1-1.42-1h-12.45v-8.89c0-1.3-1.06-2.36-2.36-2.36H30.63c-1.3,0-2.36,1.06-2.36,2.36v29.99c0,1.3,1.06,2.35,2.36,2.35h6.61l.24.95c.78,3.07,3.53,5.21,6.69,5.21s5.92-2.14,6.7-5.21l.24-.95h17.21l.24.95c.78,3.07,3.53,5.21,6.7,5.21s5.91-2.14,6.69-5.21l.24-.95h2.98c.41,0,.75-.34.75-.75v-13.39c0-.17-.07-.33-.17-.47ZM44.18,88.24c-2.98,0-5.41-2.43-5.41-5.41s2.43-5.41,5.41-5.41,5.41,2.43,5.41,5.41-2.43,5.41-5.41,5.41ZM63.3,82.08h-12.18l-.17-.68c-.71-2.81-2.99-5.06-5.86-5.42-3.53-.45-6.75,1.8-7.6,5.15l-.24.95h-6.6c-.48,0-.87-.39-.87-.87v-29.97c0-.48.39-.87.87-.87h32.66c.48,0,.87.39.87.87v29.97c0,.48-.39.87-.87.87ZM75.27,88.24c-2.98,0-5.41-2.43-5.41-5.41s2.43-5.41,5.41-5.41,5.41,2.43,5.41,5.41-2.43,5.41-5.41,5.41ZM82.21,82.08l-.25-.98c-.79-3.05-3.54-5.18-6.69-5.18s-5.92,2.14-6.7,5.21l-.24.95h-2.67v-20.46h12.38l.37.54c.32.47,2.13,2.71,3.45,4.34l.23.29q2.16,2.68,2.25,2.94l.06.35v12s-2.21,0-2.21,0Z"/>
</svg>