<?xml version="1.0" encoding="UTF-8"?>
<svg id="Layer_1" data-name="Layer 1" xmlns="http://www.w3.org/2000/svg" viewBox="0 0 100 100">
  <defs>
    <style>
      .cls-1 {
        fill: #fff;
        strokeWidth: 0px;
      }
    </style>
  </defs>
  <g id="_464_City_map_mark_navigate_plan" data-name="464, City, map, mark, navigate, plan">
    <g id="Group_138" data-name="Group 138">
      <path id="Path_56" data-name="Path 56" class="cls-1" d="M60.86,43.77c2.56,0,4.64-2.08,4.64-4.64s-2.08-4.64-4.64-4.64c-2.56,0-4.64,2.08-4.64,4.64h0c0,2.56,2.08,4.64,4.64,4.64ZM60.86,36.16c1.64,0,2.97,1.33,2.97,2.97s-1.33,2.97-2.97,2.97-2.97-1.33-2.97-2.97h0c0-1.64,1.33-2.97,2.97-2.97Z"/>
      <path id="Path_57" data-name="Path 57" class="cls-1" d="M65,48.08c2.57-2.56,5-4.99,5-8.94,0-5.05-4.1-9.14-9.15-9.14-4.72,0-8.66,3.6-9.1,8.3-4.13-1.65-3.97-1.59-4.06-1.62-.02,0-.08-.02-.1-.02h-.1s-.1,0-.1,0l-.1.02c-.09.02.34-.15-8.13,3.24l-8.03-3.21c-.43-.17-.91.04-1.08.47-.04.1-.06.2-.06.31v28.34c0,.34.21.65.52.77,6.53,2.61,8.36,3.34,8.4,3.36.04.01.09.02.13.03.07.01.15.01.22,0,.07,0,.14-.03.2-.05l8.03-3.21c8.6,3.44,8.07,3.24,8.2,3.26.04,0,.09.01.13.01.09,0,.17-.01.25-.04.06-.02,5.46-2.18,8.39-3.35.32-.13.52-.43.52-.77v-17.75h0ZM38.33,53.84v4.81l-3.33-1.67v-4.81l3.33,1.67ZM40,53.89l6.67-2.67v4.87l-6.67,2.67v-4.87ZM55,46.32v5.78l-6.67-2.67v-10.71l3.44,1.38c.35,2.38,1.48,4.57,3.23,6.22h0ZM56.67,52.12v-4.09c.98.98,1.95,1.94,2.84,3.02l-2.84,1.07ZM48.33,56.1v-4.87l6.67,2.67v4.87l-6.67-2.67ZM56.67,58.77v-4.86c4.84-1.83,4.53-1.7,4.65-1.78.08-.05.15-.12.21-.19.56-.75,1.16-1.47,1.81-2.15v6.32l-6.67,2.67ZM60.86,31.66c4.13,0,7.47,3.35,7.47,7.47,0,4.62-4.2,6.91-7.47,10.93-3.28-4.02-7.47-6.31-7.47-10.93,0-4.13,3.35-7.47,7.47-7.47h0ZM46.66,49.43l-6.67,2.67v-10.71l6.67-2.67v10.71ZM31.66,38.72l6.67,2.67v10.59l-3.79-1.9c-.41-.2-.91-.03-1.12.38-.06.11-.08.24-.09.36v6.67c0,.32.18.6.46.75l4.53,2.27v7.42l-6.67-2.67v-26.54ZM40,60.56l6.67-2.67v7.37l-6.67,2.67v-7.37ZM48.33,57.89l6.67,2.67v7.37l-6.67-2.67v-7.37ZM56.67,67.93v-7.37l6.67-2.67v7.37l-6.67,2.67Z"/>
    </g>
  </g>
</svg>