<?xml version="1.0" encoding="UTF-8"?>
<svg id="Layer_1" data-name="Layer 1" xmlns="http://www.w3.org/2000/svg" viewBox="0 0 100 100">
  <defs>
    <style>
      .cls-1 {
        fill: #fff;
        strokeWidth: 0px;
      }
    </style>
  </defs>
  <g id="feedback-2">
    <path id="Path_58" data-name="Path 58" class="cls-1" d="M70.75,34.52l-4.21-4.21c-.41-.41-1.08-.41-1.49,0,0,0,0,0,0,0h0l-12.63,12.63c-.2.2-.31.46-.31.74v4.21c0,.58.47,1.05,1.05,1.05h4.21c.28,0,.55-.11.74-.31l12.63-12.63c.41-.41.41-1.08,0-1.49ZM56.93,46.84h-2.72v-2.72l11.58-11.58,2.72,2.72-11.58,11.58Z"/>
    <path id="Path_59" data-name="Path 59" class="cls-1" d="M67.9,42.63c-.58,0-1.05.47-1.05,1.05v14.74c0,1.74-1.41,3.16-3.16,3.16h-10.53c-.23,0-.45.07-.63.21l-6.73,5.05v-4.22c0-.58-.47-1.05-1.05-1.05h-10.53c-1.74,0-3.16-1.42-3.16-3.16v-18.95c0-1.74,1.41-3.16,3.16-3.16h18.95c.58.02,1.07-.44,1.09-1.02.02-.58-.44-1.07-1.02-1.09-.02,0-.05,0-.07,0h-18.95c-2.9,0-5.26,2.36-5.26,5.26v18.95c0,2.91,2.36,5.26,5.26,5.26h9.48v5.26c0,.58.47,1.05,1.05,1.05.23,0,.45-.07.63-.21l8.14-6.11h10.17c2.91,0,5.26-2.36,5.26-5.26v-14.74c0-.58-.48-1.05-1.06-1.05Z"/>
    <path id="Path_60" data-name="Path 60" class="cls-1" d="M46.84,40.53h-10.53c-.58-.02-1.07.44-1.09,1.02-.02.58.44,1.07,1.02,1.09.02,0,.05,0,.07,0h10.53c.58.02,1.07-.44,1.09-1.02.02-.58-.44-1.07-1.02-1.09-.02,0-.05,0-.07,0Z"/>
    <path id="Path_61" data-name="Path 61" class="cls-1" d="M36.32,48.95h10.53c.58,0,1.05-.47,1.06-1.05,0-.58-.47-1.05-1.05-1.06h-10.53c-.58,0-1.05.47-1.06,1.05,0,.58.47,1.05,1.05,1.06h0Z"/>
    <path id="Path_62" data-name="Path 62" class="cls-1" d="M36.32,55.26h25.26c.58,0,1.05-.47,1.05-1.06,0-.58-.47-1.05-1.05-1.05h-25.26c-.58,0-1.05.47-1.06,1.05,0,.58.47,1.05,1.05,1.06h0Z"/>
  </g>
</svg>