<?xml version="1.0" encoding="UTF-8"?>
<svg id="Layer_1" data-name="Layer 1" xmlns="http://www.w3.org/2000/svg" viewBox="0 0 100 100">
  <defs>
    <style>
      .cls-1 {
        fill: #fff;
        strokeWidth: 0px;
      }
    </style>
  </defs>
  <g id="Tracking">
    <path id="Path_993" data-name="Path 993" class="cls-1" d="M75.84,52l-10.8-10.8c-.49-.49-1.15-.77-1.85-.76h-14.93v1.74h4.35v13.04h1.74v-13.04h8.84c.23,0,.45.09.62.26l1.49,1.49h-3.99c-.96,0-1.74.78-1.74,1.74h0v7.83c0,.96.78,1.73,1.74,1.73h13.04v6.96c0,.48-.39.87-.87.87h-1.81c-.48-3.32-3.56-5.63-6.88-5.15-2.67.38-4.77,2.48-5.15,5.15h-12.31c-.48-3.32-3.56-5.63-6.88-5.15-2.67.38-4.77,2.48-5.15,5.15h-1.8c-.48,0-.87-.39-.87-.87h0v-7.83h-1.74v7.83c0,1.44,1.16,2.61,2.6,2.61,0,0,0,0,.01,0h1.81c.19,1.32.81,2.55,1.77,3.48h-13.15v1.73h41.75c3.02,0,5.58-2.22,6.02-5.21h1.81c1.44,0,2.61-1.17,2.61-2.61v-9.57c0-.23-.09-.45-.25-.61h0ZM36.96,63.92c0-2.4,1.95-4.35,4.35-4.35s4.35,1.95,4.35,4.35-1.95,4.35-4.35,4.35-4.35-1.95-4.35-4.35h0ZM45.56,68.27c.96-.93,1.58-2.15,1.77-3.48h12.31c.19,1.32.81,2.55,1.77,3.48h-15.85ZM65.66,68.27c-2.4,0-4.35-1.95-4.35-4.35s1.95-4.35,4.35-4.35,4.35,1.95,4.35,4.35-1.95,4.35-4.35,4.35h0ZM61.31,53.48v-7.83h5.73l7.32,7.32v.51h-13.05Z"/>
    <rect id="Rectangle_696" data-name="Rectangle 696" class="cls-1" x="40.93" y="62.56" width="1.06" height="2.13"/>
    <rect id="Rectangle_697" data-name="Rectangle 697" class="cls-1" x="64.32" y="62.56" width="2.13" height="2.13"/>
    <rect id="Rectangle_698" data-name="Rectangle 698" class="cls-1" x="23.91" y="60.43" width="4.25" height="2.13"/>
    <rect id="Rectangle_699" data-name="Rectangle 699" class="cls-1" x="26.04" y="57.24" width="2.13" height="1.06"/>
    <rect id="Rectangle_700" data-name="Rectangle 700" class="cls-1" x="26.04" y="52.99" width="2.13" height="2.13"/>
    <path id="Path_994" data-name="Path 994" class="cls-1" d="M35.22,52.61c6.24,0,11.31-5.06,11.31-11.31s-5.06-11.31-11.31-11.31-11.31,5.06-11.31,11.31h0c0,6.24,5.06,11.31,11.31,11.31ZM35.22,31.74c5.29,0,9.57,4.29,9.57,9.57s-4.29,9.57-9.57,9.57-9.57-4.29-9.57-9.57,4.29-9.57,9.57-9.57Z"/>
    <path id="Path_995" data-name="Path 995" class="cls-1" d="M35.22,49.13c.23,0,.45-.09.61-.25.56-.56,5.47-5.58,5.47-9.31,0-3.36-2.72-6.09-6.09-6.09s-6.09,2.72-6.09,6.09h0c0,3.73,4.91,8.75,5.47,9.31.16.16.38.25.61.26ZM35.22,35.22c2.4,0,4.35,1.95,4.35,4.35,0,2.23-2.74,5.68-4.35,7.44-1.61-1.76-4.35-5.2-4.35-7.44,0-2.4,1.95-4.35,4.35-4.35Z"/>
    <path id="Path_996" data-name="Path 996" class="cls-1" d="M37.83,39.57c0-1.44-1.17-2.61-2.61-2.61s-2.61,1.17-2.61,2.61,1.17,2.61,2.61,2.61h0c1.44,0,2.61-1.17,2.61-2.61ZM34.35,39.57c0-.48.39-.87.87-.87s.87.39.87.87c0,.48-.39.87-.87.87s-.87-.39-.87-.87h0Z"/>
    <rect id="Rectangle_701" data-name="Rectangle 701" class="cls-1" x="56.88" y="57.24" width="3.19" height="1.06"/>
  </g>
</svg>