<?xml version="1.0" encoding="UTF-8"?>
<svg id="Layer_1" data-name="Layer 1" xmlns="http://www.w3.org/2000/svg" viewBox="0 0 100 100">
  <defs>
    <style>
      .cls-1 {
        fill: #fff;
        strokeWidth: 0px;
      }
    </style>
  </defs>
  <path class="cls-1" d="M50,29.63c-6.2,0-11.25,5.05-11.25,11.25s5.05,11.25,11.25,11.25c6.2,0,11.24-5.05,11.25-11.25,0-6.2-5.05-11.25-11.25-11.25ZM50,50.54c-5.33,0-9.66-4.34-9.66-9.66s4.34-9.66,9.66-9.66h0c5.32,0,9.66,4.34,9.66,9.66,0,5.33-4.34,9.66-9.66,9.66Z"/>
  <path class="cls-1" d="M82.67,70.15c-3.77,0-6.89,2.87-7.28,6.54h-18.7c5.11-6.88,12.17-17.09,16.02-25.86h2.12c8.36,0,15.17-6.8,15.17-15.17s-6.8-15.17-15.17-15.17h-9.38c-4.24-3.26-9.51-5.23-15.2-5.28-.09,0-.18,0-.26,0-5.69,0-11.09,1.86-15.53,5.28h-12.48c-.39-2.95-2.91-5.23-5.96-5.23-3.32,0-6.02,2.7-6.02,6.02s2.7,6.02,6.02,6.02c3.05,0,5.57-2.29,5.96-5.23h10.62c-.15.14-.3.28-.45.42-4.87,4.77-7.58,11.15-7.65,17.96,0,2.49.81,5.51,2.12,8.79h-2.1c-8,0-14.51,6.51-14.51,14.51s6.51,14.51,14.51,14.51h19.99c2.68,3.54,4.61,5.91,4.89,6.25.3.37.92.37,1.22,0,.27-.33,2.21-2.71,4.89-6.25h19.89c.4,3.67,3.51,6.53,7.28,6.53,4.04,0,7.32-3.29,7.33-7.33,0-4.04-3.29-7.33-7.33-7.33ZM16.02,25.71c-2.45,0-4.44-1.99-4.44-4.44s1.99-4.44,4.44-4.44,4.44,1.99,4.44,4.44-1.99,4.44-4.44,4.44ZM74.83,22.07c7.49,0,13.58,6.09,13.58,13.58s-6.09,13.58-13.58,13.58h-1.45c1.32-3.28,2.12-6.3,2.12-8.79-.07-7.22-3.22-13.76-8.18-18.38h7.5ZM24.51,76.68c-7.13,0-12.93-5.8-12.93-12.93s5.8-12.93,12.93-12.93h2.77c3.85,8.77,10.91,18.99,16.02,25.86h-18.8ZM50.4,82.24l-.4.51-.4-.51c-4.25-5.34-15.91-20.53-21.04-32.41-.02-.08-.05-.15-.1-.22-1.47-3.45-2.38-6.62-2.38-9.16.1-13.05,10.76-23.61,23.79-23.61.09,0,.17,0,.26,0,13.03,0,23.68,10.56,23.79,23.6,0,2.55-.92,5.72-2.39,9.18-.04.06-.07.13-.09.2-5.13,11.88-16.79,27.07-21.04,32.42ZM82.67,83.22c-3.17,0-5.74-2.58-5.74-5.74s2.58-5.74,5.74-5.74,5.74,2.58,5.74,5.74-2.58,5.74-5.74,5.74Z"/>
</svg>