<?xml version="1.0" encoding="UTF-8"?>
<svg id="Layer_1" data-name="Layer 1" xmlns="http://www.w3.org/2000/svg" viewBox="0 0 100 100">
  <defs>
    <style>
      .cls-1 {
        fill: #fff;
        strokeWidth: 0px;
      }
    </style>
  </defs>
  <g id="clipboard">
    <g id="Group_125" data-name="Group 125">
      <g id="Group_124" data-name="Group 124">
        <path id="Path_43" data-name="Path 43" class="cls-1" d="M61.71,35.24h-3.62v-1.62c0-.53-.57-.76-1.1-.76h-2.81c-.62-1.79-2.35-2.95-4.24-2.86-1.88-.07-3.6,1.08-4.24,2.85h-2.76c-.53,0-1.05.24-1.05.76v1.63h-3.62c-2.14.02-3.9,1.71-4,3.86v27.28c.11,2.1,1.9,3.71,4,3.62h23.42c2.1.1,3.88-1.52,4-3.62v-27.28c-.1-2.14-1.85-3.83-4-3.86ZM43.81,34.77h2.62c.46-.06.82-.4.9-.86.28-1.23,1.36-2.11,2.62-2.14,1.25.04,2.31.92,2.57,2.14.09.47.48.82.95.86h2.71v3.81h-12.37v-3.81ZM63.81,66.38c-.11,1.05-1.05,1.81-2.1,1.71h-23.42c-1.05.1-1.98-.67-2.09-1.71v-27.28c.1-1.09,1-1.93,2.09-1.95h3.62v2.43c.05.53.51.93,1.05.9h14.05c.54.03,1.02-.36,1.1-.9v-2.43h3.61c1.09.02,2,.86,2.09,1.95v27.28h0Z"/>
        <path id="Path_44" data-name="Path 44" class="cls-1" d="M46.33,51.29c-.36-.38-.95-.4-1.33-.05l-3.05,2.9-1.29-1.33c-.36-.38-.95-.4-1.33-.05-.37.39-.37.99,0,1.38l1.95,2c.17.19.41.29.67.29.25,0,.49-.11.67-.29l3.71-3.52c.37-.34.39-.91.06-1.28,0,0,0,0,0,0-.02-.02-.04-.04-.05-.05Z"/>
        <path id="Path_45" data-name="Path 45" class="cls-1" d="M60,53.33h-10.95c-.52,0-.95.43-.95.95,0,.52.42.95.95.95h10.95c.52,0,.95-.42.95-.95,0-.52-.42-.95-.95-.95h0,0Z"/>
        <path id="Path_46" data-name="Path 46" class="cls-1" d="M46.33,43.67c-.36-.38-.95-.4-1.33-.05l-3.05,2.9-1.29-1.33c-.36-.38-.95-.4-1.33-.05-.37.39-.37.99,0,1.38l1.95,2c.17.19.41.29.67.29.25,0,.49-.11.67-.29l3.71-3.52c.37-.34.39-.91.06-1.28,0,0,0,0,0,0-.02-.02-.04-.04-.05-.05Z"/>
        <path id="Path_47" data-name="Path 47" class="cls-1" d="M60,45.72h-10.95c-.52,0-.95.43-.95.95s.43.95.95.95h10.95c.52,0,.95-.43.95-.95s-.43-.95-.95-.95h0Z"/>
        <path id="Path_48" data-name="Path 48" class="cls-1" d="M46.33,58.9c-.36-.38-.95-.4-1.33-.05l-3.05,2.9-1.29-1.33c-.36-.38-.95-.4-1.33-.05-.37.39-.37.99,0,1.38l1.95,2c.17.19.41.29.67.29.25,0,.49-.11.67-.29l3.71-3.52c.37-.34.39-.91.06-1.28,0,0,0,0,0,0-.02-.02-.04-.04-.05-.05Z"/>
        <path id="Path_49" data-name="Path 49" class="cls-1" d="M60,60.95h-10.95c-.52,0-.95.43-.95.95,0,.52.42.95.95.95h10.95c.52,0,.95-.42.95-.95,0-.52-.42-.95-.95-.95h0,0Z"/>
      </g>
    </g>
  </g>
</svg>