<?xml version="1.0" encoding="UTF-8"?>
<svg id="Layer_1" data-name="Layer 1" xmlns="http://www.w3.org/2000/svg" viewBox="0 0 80 50">
  <g id="cargo-ship">
    <g id="Group_194" data-name="Group 194">
      <path id="Path_89" data-name="Path 89" d="M77.67,25.82c-.38-.6-1.04-.96-1.75-.96h-9.41c-1.68,0-3.04,1.36-3.04,3.04,0,.03,0,.07,0,.1v-7.17c0-1.03-.84-1.87-1.87-1.87h-8.15v-8.34c0-.79-.65-1.44-1.44-1.44h-19.38c-.79,0-1.44.64-1.44,1.44v18.09h-3.45v-6.58c.81,0,1.47-.66,1.47-1.47v-2.72c0-.81-.66-1.47-1.47-1.47h-3.31v-8.19c0-.92-.75-1.66-1.67-1.66h-4.78V1.13c0-.62-.5-1.13-1.13-1.13s-1.13.5-1.13,1.13v5.48h-4.78c-.92,0-1.66.75-1.66,1.66v8.19h-3.32c-.81,0-1.47.66-1.47,1.47h0v2.72c0,.81.66,1.47,1.47,1.47v6.58h-2.01c-1.06,0-1.93.86-1.93,1.93,0,.13.01.26.04.39.92,4.04,2.87,7.76,5.67,10.81.15.17.25.38.29.6.01.06.02.12.02.18v.02c0,.06,0,.11,0,.17v.03c0,.05-.02.1-.03.15,0,.01,0,.03,0,.04-.02.06-.04.12-.07.18l-1.82,3.81c-.49,1.04-.06,2.28.98,2.77.28.13.58.2.89.2h58.09c.8,0,1.53-.47,1.88-1.19l9.87-21c.3-.64.25-1.39-.13-1.99ZM53.45,21.18h7.79v7.53h-7.79v-7.53ZM43.43,11.41h7.79v7.54h-7.79v-7.54ZM43.43,21.18h7.79v7.53h-7.79v-7.53ZM33.41,11.41h7.79v7.54h-7.79v-7.54ZM33.41,21.18h7.79v7.53h-7.79v-7.53ZM11.49,8.83h10.69v7.63h-10.69v-7.63ZM6.71,18.69h20.26v1.2h-12.61c-.62,0-1.11.5-1.11,1.12,0,.61.5,1.11,1.11,1.11h11.14v6.58H8.17v-6.58h.94c.62,0,1.11-.5,1.11-1.12,0-.61-.5-1.11-1.11-1.11h-2.41v-1.2ZM69.08,41.11h-11.06c-.62,0-1.11.5-1.11,1.12,0,.61.5,1.11,1.11,1.11h10l-2.08,4.43H8.2l1.72-3.59c.04-.07.07-.15.1-.23,0-.02.02-.05.03-.07.02-.05.04-.11.05-.16,0-.03.02-.06.03-.09.01-.05.03-.09.04-.14,0-.03.02-.07.02-.11,0-.02,0-.03.01-.05h42.59c.62,0,1.12-.5,1.12-1.11,0-.62-.5-1.12-1.11-1.12H9.89c-.14-.27-.31-.52-.52-.75-2.46-2.66-4.21-5.9-5.07-9.42l58.04.02c.06,0,.25,0,.31-.02,1.68,0,3.04-1.36,3.04-3.04,0-.45.36-.81.81-.81h9.16l-6.59,14.03Z" style="fill: #0885a6; stroke-width: 0px;"/>
    </g>
  </g>
</svg>