<?xml version="1.0" encoding="UTF-8"?>
<svg id="Layer_1" data-name="Layer 1" xmlns="http://www.w3.org/2000/svg" xmlns:xlink="http://www.w3.org/1999/xlink" viewBox="0 0 80 50">
  <defs>
    <clipPath id="clippath">
      <rect x="5.55" width="68.9" height="50" style="fill: #0885a6; stroke-width: 0px;"/>
    </clipPath>
  </defs>
  <g style="clip-path: url(#clippath);">
    <g id="Group_231" data-name="Group 231">
      <path id="Path_105" data-name="Path 105" d="M73.1,30.17h-.86V2.69h.86c.74,0,1.35-.6,1.35-1.35s-.6-1.35-1.35-1.35H6.9c-.74,0-1.35.6-1.35,1.35s.6,1.35,1.35,1.35h.88v27.48h-.88c-.74,0-1.35.6-1.35,1.35v6.81c0,.74.6,1.35,1.35,1.35h1.97c-1.39,4.08.79,8.53,4.87,9.92,3.34,1.14,7.02-.1,9-3.02,2.42,3.57,7.28,4.51,10.85,2.09,2.92-1.97,4.15-5.66,3.02-8.99h5.22c-1.39,4.09.79,8.53,4.88,9.92,3.33,1.14,7.02-.1,8.99-3.02,2.42,3.57,7.28,4.51,10.85,2.09,2.92-1.97,4.15-5.66,3.02-8.99h3.55c.74,0,1.34-.6,1.34-1.35v-6.81c0-.74-.6-1.35-1.35-1.35M16.26,47.31c-2.83,0-5.13-2.3-5.12-5.13,0-.88.23-1.75.66-2.52h8.93c1.39,2.47.52,5.59-1.95,6.98-.77.43-1.64.66-2.52.66M34.33,42.19c0,2.83-2.3,5.12-5.13,5.12-2.83,0-5.12-2.3-5.12-5.13,0-.88.23-1.75.66-2.52h8.93c.44.77.66,1.64.66,2.52M49.22,47.31c-2.83,0-5.13-2.3-5.12-5.13,0-.88.23-1.75.66-2.52h8.92c1.39,2.47.52,5.59-1.95,6.98-.77.43-1.64.66-2.52.66M67.28,42.19c0,2.83-2.3,5.12-5.13,5.12-2.83,0-5.12-2.3-5.12-5.13,0-.88.23-1.75.66-2.52h8.93c.44.77.66,1.64.66,2.52M71.76,36.97H8.24v-4.11h45.93c.23,0,.45-.06.65-.17.11-.06.21-.13.3-.22.01-.01.02-.03.03-.04.5-.54.47-1.39-.07-1.9-.25-.23-.58-.36-.92-.36h-4.83V12.5h0v-5.9c0-.74-.6-1.35-1.35-1.35s-1.35.6-1.35,1.35v4.55h-5.32v-4.55c0-.74-.6-1.35-1.35-1.35s-1.35.6-1.35,1.35v4.55h-5.32v-4.55c0-.74-.6-1.35-1.35-1.35s-1.35.6-1.35,1.35v20.18h0v3.4H10.47V2.69h59.08v27.48h-3.54c-.74,0-1.34.6-1.35,1.34,0,.34.13.67.36.92.01.01.02.03.03.04s.03.02.04.04c.25.23.57.36.91.36h5.75v4.12ZM46.65,13.83v12.94h0v3.4h-13.33V13.83h13.33Z" style="fill: #0885a6; stroke-width: 0px;"/>
      <path id="Path_106" data-name="Path 106" d="M17.58,41.92c-.02-.09-.04-.17-.08-.25-.03-.08-.07-.16-.12-.24-.02-.04-.05-.07-.08-.11-.03-.03-.06-.07-.09-.1-.03-.03-.06-.06-.1-.09-.03-.03-.07-.05-.11-.08-.08-.05-.15-.09-.24-.12-.08-.03-.17-.06-.25-.08-.04,0-.09-.02-.13-.02-.09,0-.18,0-.27,0-.04,0-.09.01-.13.02-.09.02-.17.04-.25.08-.08.03-.16.07-.24.12-.04.02-.07.05-.11.08-.03.03-.07.06-.1.09-.03.03-.06.06-.09.1-.03.03-.05.07-.08.11-.05.08-.09.15-.12.24-.03.08-.06.17-.08.25,0,.04-.02.09-.02.13,0,.04,0,.09,0,.13,0,.04,0,.09,0,.13,0,.05.01.09.02.13.03.17.1.34.2.48.02.04.05.07.08.11.06.07.12.13.19.19.03.03.07.05.11.08.08.05.15.09.24.12.08.03.17.06.25.08.04,0,.09.02.13.02.05,0,.09,0,.13,0,.36,0,.7-.14.95-.39.03-.03.06-.06.09-.1.03-.03.05-.07.08-.11.05-.08.09-.15.12-.24.03-.08.06-.17.08-.25,0-.04.01-.09.02-.13,0-.04,0-.09,0-.13,0-.04,0-.09,0-.13,0-.04-.01-.09-.02-.13" style="fill: #0885a6; stroke-width: 0px;"/>
      <path id="Path_107" data-name="Path 107" d="M27.88,42.45c.02.09.04.17.08.25.03.08.07.16.12.24.02.04.05.07.08.11s.06.07.09.1.06.06.1.09c.03.03.07.05.11.08.07.05.15.09.24.12.08.03.17.06.25.08.04,0,.09.02.13.02.04,0,.09,0,.13,0s.09,0,.13,0c.04,0,.09-.01.13-.02.17-.04.34-.1.48-.2.04-.02.07-.05.11-.08.03-.03.07-.06.1-.09s.06-.06.09-.1.05-.07.08-.11c.05-.07.09-.15.12-.24.03-.08.06-.17.08-.25,0-.04.02-.09.02-.13s0-.09,0-.13,0-.09,0-.13-.01-.09-.02-.13c-.02-.09-.04-.17-.08-.25-.03-.08-.07-.16-.12-.24-.02-.04-.05-.07-.08-.11-.03-.03-.06-.07-.09-.1-.03-.03-.06-.06-.1-.09s-.07-.05-.11-.08c-.08-.05-.15-.09-.24-.12-.08-.03-.17-.06-.25-.08-.04,0-.09-.02-.13-.02-.09,0-.18,0-.26,0-.04,0-.09.01-.13.02-.17.03-.34.1-.48.2-.04.02-.07.05-.11.08s-.07.06-.1.09c-.03.03-.06.06-.09.1-.03.03-.05.07-.08.11-.05.08-.09.15-.12.24-.03.08-.06.17-.08.25,0,.04-.02.09-.02.13s0,.09,0,.13,0,.09,0,.13.01.09.02.13" style="fill: #0885a6; stroke-width: 0px;"/>
      <path id="Path_108" data-name="Path 108" d="M50.54,41.92c-.02-.09-.04-.17-.08-.25-.03-.08-.07-.16-.12-.24-.02-.04-.05-.07-.08-.11-.03-.03-.06-.07-.09-.1-.03-.03-.06-.06-.1-.09s-.07-.05-.11-.08c-.08-.05-.15-.09-.24-.12-.08-.03-.17-.06-.25-.08-.04,0-.09-.02-.13-.02-.09,0-.18,0-.26,0-.04,0-.09.01-.13.02-.17.03-.34.1-.48.2-.04.02-.07.05-.11.08s-.07.06-.1.09c-.03.03-.06.06-.09.1-.03.03-.05.07-.08.11-.05.08-.09.15-.12.24-.03.08-.06.17-.08.25,0,.04-.01.09-.02.13,0,.04,0,.09,0,.13,0,.04,0,.09,0,.13,0,.04.01.09.02.13.02.09.04.17.08.25.03.08.07.16.12.24.02.04.05.07.08.11.06.07.12.13.19.19.03.03.07.05.11.08.08.05.15.09.24.12.08.03.17.06.25.08.04,0,.09.01.13.02s.09,0,.13,0,.09,0,.13,0,.09-.01.13-.02c.09-.02.17-.04.25-.08.08-.03.16-.07.24-.12.04-.02.07-.05.11-.08.03-.03.07-.06.1-.09.03-.03.06-.06.09-.1.03-.03.05-.07.08-.11.05-.08.09-.15.12-.24.03-.08.06-.17.08-.25,0-.04.01-.09.02-.13,0-.04,0-.09,0-.13s0-.09,0-.13c0-.04-.01-.09-.02-.13" style="fill: #0885a6; stroke-width: 0px;"/>
      <path id="Path_109" data-name="Path 109" d="M60.84,42.45c.03.17.1.34.2.48.02.04.05.07.08.11s.06.07.09.1.06.06.1.09c.03.03.07.05.11.08.07.05.15.09.24.12.08.03.17.06.25.08.04,0,.09.02.13.02s.09,0,.13,0,.09,0,.13,0,.09-.01.13-.02c.09-.02.17-.04.25-.08.08-.03.16-.07.24-.12.04-.02.07-.05.11-.08.03-.03.07-.06.1-.09s.06-.06.09-.1.05-.07.08-.11c.05-.07.09-.15.12-.24.03-.08.06-.17.08-.25,0-.04.01-.09.02-.13s0-.09,0-.13,0-.09,0-.13-.01-.09-.02-.13c-.02-.09-.04-.17-.08-.25-.03-.08-.07-.16-.12-.24-.02-.04-.05-.07-.08-.11s-.06-.07-.09-.1-.06-.06-.1-.09-.07-.05-.11-.08c-.08-.05-.15-.09-.24-.12-.08-.03-.17-.06-.25-.08-.04,0-.09-.02-.13-.02-.09,0-.18,0-.26,0-.04,0-.09.01-.13.02-.17.03-.34.1-.48.2-.04.02-.07.05-.11.08s-.07.06-.1.09c-.03.03-.06.06-.09.1-.03.03-.05.07-.08.11-.05.08-.09.15-.12.24-.03.08-.06.17-.08.25,0,.04-.02.09-.02.13,0,.05,0,.09,0,.13s0,.09,0,.13c0,.04.01.09.02.13" style="fill: #0885a6; stroke-width: 0px;"/>
      <path id="Path_110" data-name="Path 110" d="M23.95,5.24c-.74,0-1.35.6-1.35,1.35v20.19c0,.74.6,1.35,1.35,1.35s1.35-.6,1.35-1.35V6.59c0-.74-.6-1.35-1.34-1.35,0,0,0,0,0,0" style="fill: #0885a6; stroke-width: 0px;"/>
      <path id="Path_111" data-name="Path 111" d="M15.93,5.24c-.74,0-1.35.6-1.35,1.35h0v20.19c0,.74.6,1.35,1.34,1.35.74,0,1.35-.6,1.35-1.34h0V6.59c0-.74-.6-1.35-1.34-1.35,0,0,0,0,0,0" style="fill: #0885a6; stroke-width: 0px;"/>
      <path id="Path_112" data-name="Path 112" d="M65.37,26.77V6.59c0-.74-.6-1.35-1.35-1.35s-1.35.6-1.35,1.35h0v20.18c0,.74.6,1.35,1.35,1.35s1.35-.6,1.35-1.35h0" style="fill: #0885a6; stroke-width: 0px;"/>
      <path id="Path_113" data-name="Path 113" d="M56.01,5.24c-.74,0-1.35.6-1.35,1.35h0v20.19c0,.74.6,1.35,1.34,1.35.74,0,1.35-.6,1.35-1.34h0V6.59c0-.74-.6-1.35-1.35-1.35h0" style="fill: #0885a6; stroke-width: 0px;"/>
      <path id="Path_114" data-name="Path 114" d="M61.46,31.25c-.02-.09-.04-.17-.08-.25-.03-.08-.07-.16-.12-.24-.02-.04-.05-.07-.08-.11-.06-.07-.12-.13-.19-.19-.03-.03-.07-.05-.11-.08-.08-.05-.15-.09-.24-.12-.08-.03-.17-.06-.25-.08-.04,0-.09-.01-.13-.02-.09,0-.18,0-.27,0-.04,0-.09.01-.13.02-.09.02-.17.04-.25.08-.08.03-.16.07-.24.12-.04.02-.07.05-.11.08-.07.06-.13.12-.19.19-.03.03-.05.07-.08.11-.05.08-.09.15-.12.24-.03.08-.06.17-.08.25,0,.04-.02.09-.02.13s0,.09,0,.13,0,.09,0,.13.01.09.02.13c.03.17.1.34.2.48.02.04.05.07.08.11.03.03.06.07.09.1.03.03.06.06.1.09s.07.05.11.08c.15.1.31.17.48.2.04,0,.09.02.13.02s.09,0,.13,0,.09,0,.13,0,.09-.01.13-.02c.17-.03.34-.1.48-.2.04-.02.07-.05.11-.08s.07-.06.1-.09c.03-.03.06-.06.09-.1.03-.03.05-.07.08-.11.1-.15.17-.31.2-.48,0-.04.01-.09.02-.13,0-.04,0-.09,0-.13s0-.09,0-.13-.01-.09-.02-.13" style="fill: #0885a6; stroke-width: 0px;"/>
    </g>
  </g>
</svg>