<svg xmlns="http://www.w3.org/2000/svg" xmlns:xlink="http://www.w3.org/1999/xlink" viewBox="0 0 512 512" id="itinerary">
  <defs>
    <linearGradient id="a" x1="98.38" x2="361.5" y1="99.83" y2="99.83" gradientUnits="userSpaceOnUse">
      <stop offset="0" stop-color="#cacfdd"></stop>
      <stop offset="1" stop-color="#eef0f1"></stop>
    </linearGradient>
    <linearGradient xlink:href="#a" id="b" x1="283.79" x2="361.5" y1="371.66" y2="371.66"></linearGradient>
  </defs>
  <g style="isolation:isolate">
    <rect width="263.12" height="50.8" x="98.38" y="74.43" fill="url(#a)"></rect>
    <path fill="#5e6175" d="M364.5,128.23H95.38V71.43H364.5Zm-263.12-6H358.5V77.43H101.38Z"></path>
    <circle cx="136.4" cy="100.25" r="10.33" fill="#e1830e"></circle>
    <rect width="146.13" height="9.66" x="173.49" y="95.42" fill="#a9afc4"></rect>
    <rect width="263.12" height="303.23" x="98.38" y="125.23" fill="#f5f5f5"></rect>
    <rect width="263.12" height="303.23" x="98.38" y="125.23" fill="#f5f5f5"></rect>
    <path fill="url(#b)" d="M361.5,314.86v113.6h-71a81.41,81.41,0,0,1,71-113.6Z" style="mix-blend-mode:multiply"></path>
    <path fill="#e1830e" d="M173.08,280.53H319.36V256.27H173.08a10.67,10.67,0,0,1-10.66-10.65H138.17A35,35,0,0,0,173.08,280.53Z"></path>
    <path fill="#dee1ec" d="M284.45,165.15H138.17v24.26H284.45a10.67,10.67,0,0,1,10.65,10.65h24.26A35,35,0,0,0,284.45,165.15Z"></path>
    <path fill="#a9afc4" d="M173.08,235H284.45a35,35,0,0,0,34.91-34.91H295.1a10.67,10.67,0,0,1-10.65,10.65H173.08a35,35,0,0,0-34.91,34.91h24.25A10.67,10.67,0,0,1,173.08,235Z"></path>
    <path fill="#5e6175" d="M319.36 283.53H173.08a38 38 0 01-37.91-37.91v-3h30.25v3a7.66 7.66 0 007.66 7.65H319.36v6H173.08a13.67 13.67 0 01-13.32-10.65H141.31a32 32 0 0031.77 28.91H319.36zM322.36 203.06H292.1v-3a7.66 7.66 0 00-7.65-7.65H138.17v-6H284.45a13.67 13.67 0 0113.32 10.65h18.45a32 32 0 00-31.77-28.91H138.17v-6H284.45a38 38 0 0137.91 37.91z"></path>
    <path fill="#5e6175" d="M165.42,248.62H135.17v-3a38,38,0,0,1,37.91-37.91H284.45a7.66,7.66,0,0,0,7.65-7.65v-3h30.26v3A38,38,0,0,1,284.45,238H173.08a7.66,7.66,0,0,0-7.66,7.65Zm-24.11-6h18.45A13.67,13.67,0,0,1,173.08,232H284.45a32,32,0,0,0,31.77-28.91H297.77a13.67,13.67,0,0,1-13.32,10.65H173.08A32,32,0,0,0,141.31,242.62Z"></path>
    <circle cx="228.76" cy="177.28" r="12.13" fill="#5e6175"></circle>
    <circle cx="228.76" cy="222.84" r="12.13" fill="#5e6175"></circle>
    <circle cx="228.76" cy="268.4" r="12.13" fill="#5e6175"></circle>
    <circle cx="146" cy="314.86" r="8.73" fill="#dee1ec"></circle>
    <circle cx="146" cy="350.45" r="8.73" fill="#a9afc4"></circle>
    <circle cx="146" cy="386.05" r="8.73" fill="#e1830e"></circle>
    <path fill="#5e6175" d="M146 326.59a11.73 11.73 0 1111.73-11.73A11.75 11.75 0 01146 326.59zm0-17.45a5.73 5.73 0 105.73 5.72A5.73 5.73 0 00146 309.14zM146 362.18a11.73 11.73 0 1111.73-11.73A11.75 11.75 0 01146 362.18zm0-17.45a5.73 5.73 0 105.73 5.72A5.73 5.73 0 00146 344.73zM146 397.77a11.73 11.73 0 1111.73-11.72A11.74 11.74 0 01146 397.77zm0-17.45a5.73 5.73 0 105.73 5.73A5.74 5.74 0 00146 380.32z"></path>
    <rect width="114.67" height="12.29" x="174.34" y="308.72" fill="#a9afc4"></rect>
    <rect width="102.22" height="12.29" x="174.34" y="344.31" fill="#a9afc4"></rect>
    <rect width="94.55" height="12.29" x="174.34" y="379.9" fill="#a9afc4"></rect>
    <path fill="#5e6175" d="M364.5,431.46H95.38V122.23H364.5Zm-263.12-6H358.5V128.23H101.38Z"></path>
    <circle cx="365.07" cy="397.51" r="63.86" fill="#f5f5f5"></circle>
    <path fill="#5e6175" d="M365.07,464.37a66.86,66.86,0,1,1,66.86-66.86A66.94,66.94,0,0,1,365.07,464.37Zm0-127.72a60.86,60.86,0,1,0,60.86,60.86A60.93,60.93,0,0,0,365.07,336.65Z"></path>
    <path fill="#e1830e" d="M378.8,425.14l7.68-7.68-3.05-27,6.83-6c5.36-4.73,8.15-11.4,6.11-18.19-6.79-2-13.46.75-18.19,6.12l-6,6.82-27-3-7.68,7.68,23.39,8-11.94,13.57-9.85-.95-5.93,6.05,15.19,4.2,3.79,14.79,6.05-5.94-.95-9.85,13.58-11.94Z"></path>
    <path fill="#5e6175" d="M93.67 41.8a11.09 11.09 0 1116.9 11.59A11.09 11.09 0 0193.67 41.8zM99.54 43a5.09 5.09 0 106-3.93h0A5.09 5.09 0 0099.54 43zM66.44 88.49a8.62 8.62 0 111.77-17.06h0a8.62 8.62 0 01-1.77 17.06zm-2.57-9.17a2.62 2.62 0 103.1-2h0A2.61 2.61 0 0063.87 79.32z"></path>
    <path fill="#a9afc4" d="M408.73,327.76h-6v-6h6Zm0-16h-6v-6h6Zm0-16h-6v-6h6Zm0-16h-6v-6h6Zm0-16h-6v-6h6Zm0-16h-6v-6h6Zm0-16h-6v-6h6Zm0-16h-6v-6h6Zm0-16h-6v-6h6Zm0-16h-6v-6h6Zm0-16h-6v-6h6Zm0-16h-6v-6h6Zm0-16h-6c0-2.62,0-4.15,0-5.9l6-.19C408.74,131.5,408.73,132.7,408.73,135.76Zm-7.06-15.33a33.29,33.29,0,0,0-1.49-5.29l5.61-2.13a38.62,38.62,0,0,1,1.76,6.24Zm-6.09-12.31a10.89,10.89,0,0,0-4.12-2.2l1.64-5.77a16.88,16.88,0,0,1,6.37,3.4Zm-13.24-2.67h-6v-6h6Z"></path>
    <rect width="6" height="16.63" x="428.73" y="447.78" fill="#5e6175" transform="rotate(-45 431.733 456.1)"></rect>
    <rect width="16.63" height="6" x="434.56" y="433.5" fill="#5e6175"></rect>
    <rect width="6" height="16.63" x="410.15" y="459.37" fill="#5e6175"></rect>
  </g>
</svg>
