<svg xmlns="http://www.w3.org/2000/svg" width="64" height="64" viewBox="0 0 16.933 16.933" id="time-tracking">
  <path fill="#ff9751" d="M14.2875 9.03451v.5293h.52929v-.5293zM14.2875 10.00323v.52929h.52929v-.52929zM14.2875 12.034v.5293h.52929V12.034zM14.2875 12.99905v.125c0 .1874-.0197.26625-.033.35123l.51919.10131c.0217-.12167.0431-.24839.0431-.44472v-.13282zM14.10609 13.90484c-.0213.0395-.0587.11304-.11454.19302-.0558.08-.0989.1363-.14466.18612l.39477.3534c.0347-.0382.1168-.13624.18928-.2415.0725-.10526.14722-.25252.14722-.25252zM13.49868 14.57982c-.0197.0147-.11106.0683-.2112.11525-.10014.0469-.20287.0779-.20287.0779l.15935.50482c.0847-.0266.15847-.0552.26904-.10356.11056-.0484.2738-.14919.2738-.14919zM12.17619 14.80822l-.1148.5162c.23114.0522.41271.0578.53276.056l.0631-.002c-.0118-.21639-.0172-.36675-.01969-.528465-.0776.002-.124035.002-.230058-.006-.106022-.009-.178762-.02592-.231312-.03572zM11.37919 14.37703l-.36281.38547c.0794.0726.13038.11704.19247.16316.039.0274.0544.041.12163.0851.0698.047.1134.0689.17004.10328l.24885-.46794c-.0686-.0389-.12819-.0732-.20574-.132095-.0641-.04569-.0972-.07579-.16444-.136975zM10.9133 13.60256l-.50999.14178c0 0 .0319.12355.0952.27183.0676.15826.14269.27802.14269.27802l.45451-.27159c-.0359-.058-.0702-.12586-.11004-.21587-.03987-.09-.05797-.16187-.07237-.20417zM10.77555 4.6273l-.51102.13557c.0442.18404.0553.30862.0552.45784.22348-.001.34612-.001.52838-.001.004-.20628-.029-.43475-.0725-.59237zM10.31877 5.64871v.5293h.52929v-.5293zM10.31877 6.58955v.52929h.52929V6.58955zM10.31877 9.61719v.52929h.52929V9.61719zM10.31877 12.62164l.00097.53194c.20401-.003.35251-.003.52832-.003v-.52934zM10.18589 3.59979C10.05353 3.73127 9.93587 3.85156 9.81239 3.97743 9.91824 4.08156 10.00681 4.19499 10.0922 4.33984L10.54877 4.07445C10.43258 3.87499 10.31611 3.73609 10.18589 3.59979zM9.15184 3.01747L9.02246 3.53263c.13225.0279.30145.0967.42487.16866L9.70755 3.24058C9.52706 3.13506 9.31679 3.0575 9.15184 3.01747zM8.5591 2.94911c-.20202.008-.39175.0322-.59097.0894l.14695.50896c.14805-.0417.29593-.0664.45439-.0669zM7.42126 3.28218C7.24724 3.38746 7.07946 3.52507 6.95743 3.65983l.38546.3627C7.45286 3.90382 7.56628 3.81551 7.698 3.73255zM6.61083 4.14466C6.47863 4.40014 6.42577 4.60187 6.40461 4.70842L6.9208 4.82332C6.9633 4.63662 7.0102 4.52936 7.07763 4.39351zM6.35003 5.29115v.52734h.5293V5.29115zM6.35003 6.34985v.5293h.5293v-.5293zM6.35003 7.40741v.5293h.5293v-.5293zM6.35003 8.46704v.5293h.5293v-.5293zM6.35003 9.5246v.5293h.5293V9.5246zM10.31869 7.63541V8.1647h.52929V7.63541zM10.31869 8.63185v.5454h.52929v-.5454zM10.31877 11.62643v.5293h.52929v-.5293zM14.27926 8.03025v.52929h.5293V8.03025zM10.31877 10.59284v.52929h.52929v-.52929zM14.2875 11.01568v.52929h.52929v-.52929zM14.27926 7.07053v.5293h.5293v-.5293z" color="#000" font-family="sans-serif" font-weight="400" overflow="visible" style="line-height:normal;font-variant-ligatures:normal;font-variant-position:normal;font-variant-caps:normal;font-variant-numeric:normal;font-variant-alternates:normal;font-feature-settings:normal;text-indent:0;text-align:start;text-decoration-line:none;text-decoration-style:solid;text-decoration-color:#000;text-transform:none;text-orientation:mixed;shape-padding:0;isolation:auto;mix-blend-mode:normal"></path>
  <path fill="#e4eff8" d="m 5.5562484,4.4979062 c 0,1.315128 -1.066122,2.3812499 -2.3812501,2.3812499 -1.3151281,0 -2.38125016,-1.0661219 -2.38125016,-2.3812499 0,-1.315128 1.06612206,-2.3812499 2.38125016,-2.3812499 1.3151281,0 2.3812501,1.0661219 2.3812501,2.3812499 z"></path>
  <path fill="#c4dcf0" d="M 3.175,2.11666 A 2.3812502,2.3812499 0 0 0 0.79375,4.49791 2.3812502,2.3812499 0 0 0 1.77974,6.42492 2.3812502,2.3812499 0 0 1 1.32292,5.02707 2.3812502,2.3812499 0 0 1 3.70417,2.64582 2.3812502,2.3812499 0 0 1 5.09943,3.10006 2.3812502,2.3812499 0 0 0 3.175,2.11666 Z"></path>
  <path fill="#549ad4" d="M 3.17603,2.90989 C 2.53471,2.90989 1.95436,3.2982 1.70894,3.89071 1.46352,4.48321 1.5991,5.16735 2.05259,5.62084 2.50607,6.07432 3.19073,6.21042 3.78323,5.965 4.37574,5.71958 4.76147,5.13923 4.76147,4.49791 4.762029,4.3517889 4.644041,4.2328742 4.49792,4.23229 H 3.43958 V 3.17602 C 3.4404218,3.0297001 3.3223512,2.9104736 3.17603,2.90989 Z"></path>
  <path fill="#549ad4" d="m 3.43958,1.05832 h -0.5293 v 1.05833 c -6.1e-4,10e-4 0.5293,0 0.5293,0 z" color="#000" font-family="sans-serif" font-weight="400" overflow="visible" style="line-height:normal;font-variant-ligatures:normal;font-variant-position:normal;font-variant-caps:normal;font-variant-numeric:normal;font-variant-alternates:normal;font-feature-settings:normal;text-indent:0;text-align:start;text-decoration-line:none;text-decoration-style:solid;text-decoration-color:#000;text-transform:none;text-orientation:mixed;shape-padding:0;isolation:auto;mix-blend-mode:normal"></path>
  <path fill="#549ad4" d="M3.70416 1.32303c.35352.00065.35352-.52995 0-.52929H2.64583c-.35352-.00066-.35352.52994 0 .52929zM5.0214844 1.8496094A.26460978.26460978 0 0 0 4.8398438 1.9296875L4.5761719 2.1933594a.26460978.26460978 0 1 0 .3730469.375L5.2148438 2.3046875A.26460978.26460978 0 0 0 5.0214844 1.8496094zM1.3203125 1.8496094C1.0822948 1.8496915.96539163 2.139462 1.1367188 2.3046875l.2636718.2636719c.2499999.2499999.6249999-.1250001.375-.375L1.5097656 1.9296875C1.4599971 1.878539 1.3916783 1.849662 1.3203125 1.8496094z" color="#000" font-family="sans-serif" font-weight="400" overflow="visible" style="line-height:normal;font-variant-ligatures:normal;font-variant-position:normal;font-variant-caps:normal;font-variant-numeric:normal;font-variant-alternates:normal;font-feature-settings:normal;text-indent:0;text-align:start;text-decoration-line:none;text-decoration-style:solid;text-decoration-color:#000;text-transform:none;text-orientation:mixed;shape-padding:0;isolation:auto;mix-blend-mode:normal"></path>
  <path fill="#549ad4" d="M5.0234375 1.5839844A.26460978.26460978 0 0 0 4.8398438 2.0390625l.265625.265625a.26460978.26460978 0 1 0 .3730468-.375L5.2148438 1.6640625A.26460978.26460978 0 0 0 5.0234375 1.5839844zM1.3183594 1.5839844c-.068644.00211-.1337796.030825-.1816406.080078l-.26562505.265625c-.24999989.2499999.12500016.6249999.37500005.375L1.5097656 2.0390625C1.6840424 1.8712052 1.560221 1.5768135 1.3183594 1.5839844z" color="#000" font-family="sans-serif" font-weight="400" overflow="visible" style="line-height:normal;font-variant-ligatures:normal;font-variant-position:normal;font-variant-caps:normal;font-variant-numeric:normal;font-variant-alternates:normal;font-feature-settings:normal;text-indent:0;text-align:start;text-decoration-line:none;text-decoration-style:solid;text-decoration-color:#000;text-transform:none;text-orientation:mixed;shape-padding:0;isolation:auto;mix-blend-mode:normal"></path>
  <path fill="#3588cb" d="M2.91042 2.93419V4.2323H3.43958V3.17603C3.44043 3.02971 3.32236 2.91048 3.17603 2.909895 3.08593 2.90989 2.99739 2.91889 2.91042 2.93419zM4.20853 4.23229C4.11893 4.76494 3.76393 5.22464 3.25406 5.43583 2.78012 5.63215 2.24902 5.58071 1.82263 5.32163 1.88743 5.42826 1.96184 5.53009 2.05259 5.62084 2.50607 6.07432 3.19073 6.21042 3.78323 5.965 4.37574 5.71958 4.76147 5.13923 4.76147 4.49791 4.76202 4.35179 4.64404 4.23287 4.49792 4.23229z"></path>
  <path fill="#549ad4" d="M3.1757812 1.8515625c-1.4581195 0-2.64648433 1.1883649-2.64648432 2.6464844-1e-8 1.4581194 1.18836482 2.6464843 2.64648432 2.6464843 1.4581196 0 2.6445313-1.1883649 2.6445313-2.6464843 0-1.4581195-1.1864117-2.6464844-2.6445313-2.6464844zm0 .5292969c1.1721367 0 2.1152344.9450509 2.1152344 2.1171875 0 1.1721365-.9430977 2.1171875-2.1152344 2.1171875-1.1721366 0-2.1171874-.945051-2.1171874-2.1171875-1e-7-1.1721366.9450508-2.1171875 2.1171874-2.1171875zM13.32767 4.97643c-.26183.1091-.47588.26724-.57205.46871-.11887.24908-.0389.5011.14262.68367.31547.31548.96781.48628 1.65417.48628.68635 0 1.3392-.1708 1.65467-.48628.1815-.18257.25788-.43563.14212-.68368-.0972-.20355-.31023-.3596-.57206-.4687-.31368-.12544-.53801.32895-.20309.48834.19219.0801.27542.16487.29662.20929.0108.0227-.003.0434-.0388.0816-.17286.17286-.67446.33021-1.27951.33021-.60504 0-1.10613-.15735-1.27899-.33021-.0358-.0383-.0501-.059-.0393-.0816.0212-.0444.10495-.12921.29714-.20929.29305-.13947.15756-.50494-.09089-.51004-.03549-.00074-.07349.006-.11265.0217z" color="#000" font-family="sans-serif" font-weight="400" overflow="visible" style="line-height:normal;font-variant-ligatures:normal;font-variant-position:normal;font-variant-caps:normal;font-variant-numeric:normal;font-variant-alternates:normal;font-feature-settings:normal;text-indent:0;text-align:start;text-decoration-line:none;text-decoration-style:solid;text-decoration-color:#000;text-transform:none;text-orientation:mixed;shape-padding:0;isolation:auto;mix-blend-mode:normal"></path>
  <path fill="#549ad4" d="m 14.55053,0.52916 c 1.02391,0 1.85363,0.85733 1.85363,1.89858 0,0.71889 -0.43223,1.45158 -0.84181,2.03501 -0.40957,0.58344 -0.8201,1.01182 -0.8201,1.01182 -0.104049,0.1078464 -0.276811,0.1078464 -0.38086,0 0,0 -0.41104,-0.42838 -0.82062,-1.01182 -0.40958,-0.58343 -0.84181,-1.31612 -0.84181,-2.03501 0,-1.04125 0.82765,-1.89858 1.85157,-1.89858 z"></path>
  <path fill="#e4eff8" d="m 14.55053,1.588 c 0.43494,0 0.7953,0.35779 0.7953,0.79272 0,0.43492 -0.36036,0.79116 -0.7953,0.79116 -0.43494,0 -0.79272,-0.35624 -0.79272,-0.79116 0,-0.43493 0.35778,-0.79272 0.79272,-0.79272 z"></path>
  <path fill="#3588cb" d="m 16.40416,2.42774 c 0,0.71889 -0.43223,1.45158 -0.84181,2.03501 -0.40957,0.58344 -0.8201,1.01182 -0.8201,1.01182 -0.104049,0.1078464 -0.276811,0.1078464 -0.38086,0 0,0 -0.17052,-0.18237 -0.39377,-0.45423 0.08926,0.019036 0.182033,-0.00927 0.24546,-0.0749 0,0 0.41053,-0.42838 0.82011,-1.01182 0.40958,-0.58344 0.84181,-1.31613 0.84181,-2.03501 0,-0.393 -0.11869,-0.75962 -0.32092,-1.064025 0.51112,0.339565 0.85008,0.928305 0.85008,1.593155 z"></path>
  <path fill="#c4dcf0" d="m 15.30862,2.15489 c -0.073,-0.0224 -0.14908,-0.0377 -0.22892,-0.0377 -0.43494,0 -0.79272,0.35779 -0.79272,0.79272 0,0.0786 0.015,0.15296 0.0367,0.22479 -0.32518,-0.0986 -0.56586,-0.39821 -0.56586,-0.75396 0,-0.43492 0.35778,-0.79271 0.792715,-0.792725 C 14.90669,1.588 15.2094,1.82917 15.30862,2.15489 Z"></path>
  <path fill="#ff9751" d="m 6.35003,10.84777 v 0.5293 h 0.5293 v -0.5293 z" color="#000" font-family="sans-serif" font-weight="400" overflow="visible" style="line-height:normal;font-variant-ligatures:normal;font-variant-position:normal;font-variant-caps:normal;font-variant-numeric:normal;font-variant-alternates:normal;font-feature-settings:normal;text-indent:0;text-align:start;text-decoration-line:none;text-decoration-style:solid;text-decoration-color:#000;text-transform:none;text-orientation:mixed;shape-padding:0;isolation:auto;mix-blend-mode:normal"></path>
  <path fill="#ff9751" d="m 1.3224,11.64165 c -0.28858,0 -0.52968,0.24059 -0.52968,0.52917 v 3.17603 c 0,0.28858 0.2411,0.52917 0.52968,0.52917 h 3.43907 c 0.28858,0 0.52968,-0.24059 0.52968,-0.52917 v -3.17603 c 0,-0.28858 -0.2411,-0.52917 -0.52968,-0.52917 z"></path>
  <path fill="#549ad4" d="m 5.0276,12.17082 c -0.14632,-8.4e-4 -0.26555,0.11723 -0.26613,0.26355 v 3.17603 c -5.7e-4,0.14713 0.119,0.26647 0.26613,0.26562 0.96962,0 1.93924,0 2.90887,0 0.14692,5.6e-4 0.26617,-0.11869 0.26561,-0.26562 v -1.85156 c -10e-6,-0.0704 -0.0281,-0.13794 -0.078,-0.18759 l -1.05781,-1.3224 c -0.0497,-0.0499 -0.11717,-0.078 -0.18759,-0.078 z"></path>
  <path fill="#3588cb" d="m 7.67292,13.00746 v 2.60294 c 5.5e-4,0.14693 -0.11869,0.26618 -0.26562,0.26562 h 0.52917 c 0.14692,5.6e-4 0.26617,-0.11869 0.26561,-0.26562 v -1.85156 c -10e-6,-0.0704 -0.0281,-0.13793 -0.078,-0.18759 z"></path>
  <path fill="#ff7f29" d="m 1.4733,15.56699 c 1.177e-4,0.106187 0.02154,0.211271 0.063,0.30903 h 1.46193 c 0.041288,-0.09779 0.06254,-0.202877 0.0625,-0.30903 0,-0.438372 -0.3553679,-0.793745 -0.79371,-0.79375 -0.438346,0 -0.79372,0.355374 -0.79372,0.79375 z"></path>
  <path fill="#ff7f29" d="m 0.79272,15.34685 c 0,0.28858 0.2411,0.52917 0.52968,0.52917 h 3.43907 c 0.28858,0 0.52968,-0.24059 0.52968,-0.52917 v -3.17603 c 0,-0.28841 -0.24082,-0.52888 -0.52917,-0.52917 v 2.91042 c 0,0.28858 -0.2411,0.52917 -0.52968,0.52917 H 0.792975 Z"></path>
  <path fill="#549ad4" d="M 5.29167,15.87468 H 0.79382 c -0.35287,0 -0.35287,-0.5293 0,-0.5293 h 4.49785 c 0,0.26502 -0.002,0.26502 0,0.5293 z" color="#000" font-family="sans-serif" font-weight="400" overflow="visible" style="line-height:normal;font-variant-ligatures:normal;font-variant-position:normal;font-variant-caps:normal;font-variant-numeric:normal;font-variant-alternates:normal;font-feature-settings:normal;text-indent:0;text-align:start;text-decoration-line:none;text-decoration-style:solid;text-decoration-color:#000;text-transform:none;text-orientation:mixed;shape-padding:0;isolation:auto;mix-blend-mode:normal"></path>
  <path fill="#e4eff8" d="M2.11718 11.64165v1.32189c-.0006883.187803.1890339.316529.36329.24649l.56276-.22479.56223.22479c.1742561.07004.3639783-.05869.36329-.24649v-1.32189c-.61719 0-1.23438 0-1.85157 0zM6.08645 12.43644c-.14612-.00056-.26503.11743-.26562.26355v1.05885c.00059.14612.1195.2641.26562.26355h1.47898c.2353-.00009.35345-.28424.18758-.45114L6.90722 12.51447c-.0497-.0499-.11716-.078-.18758-.078z"></path>
  <path fill="#3588cb" d="m 5.70663,15.56699 c 1.177e-4,0.106187 0.021541,0.211271 0.063,0.30903 h 1.46193 c 0.041288,-0.09779 0.06254,-0.202877 0.0625,-0.30903 0,-0.438376 -0.355374,-0.79375 -0.793715,-0.79375 -0.438341,0 -0.793715,0.355374 -0.793715,0.79375 z"></path>
  <path fill="#549ad4" d="m 7.4083387,15.61041 c 0,0.438376 -0.355374,0.79375 -0.79375,0.79375 -0.438376,0 -0.7937499,-0.355374 -0.7937499,-0.79375 0,-0.438376 0.3553739,-0.79375 0.7937499,-0.79375 0.438376,0 0.79375,0.355374 0.79375,0.79375 z"></path>
  <path fill="#3588cb" d="m 6.84454,14.85127 a 0.79374994,0.79374994 0 0 1 0.0346,0.22997 0.79374994,0.79374994 0 0 1 -0.79375,0.79375 0.79374994,0.79374994 0 0 1 -0.22996,-0.0346 0.79374994,0.79374994 0 0 0 0.75912,0.56379 A 0.79374994,0.79374994 0 0 0 7.4083,15.61043 0.79374994,0.79374994 0 0 0 6.84451,14.8513 Z"></path>
  <path fill="#e4eff8" d="m 6.8791723,15.61041 c -3e-7,0.146125 -0.1184583,0.264583 -0.2645836,0.264583 -0.1461252,0 -0.2645832,-0.118458 -0.2645835,-0.264583 -3e-7,-0.146126 0.1184579,-0.264584 0.2645835,-0.264584 0.1461257,0 0.2645839,0.118458 0.2645836,0.264584 z"></path>
  <path fill="#c4dcf0" d="M6.80062 15.42282c-.078123.163744-.2099828.295784-.37362.37413.049656.04992.1171652.078.18758.078.1461266.000004.264588-.118453.26459-.26458-.0001621-.0705-.028455-.138023-.0786-.18758zM3.43958 11.64165v1.32189c.00015.0574-.0184.11322-.0527.15916L3.60547 13.21c.17426.07.36398-.0587.36329-.2465V11.64162H3.70418z"></path>
  <path fill="#c4dcf0" d="m 2.11718,12.43437 v 0.52917 a 0.26460979,0.26460979 0 0 0 0.36329,0.24649 l 0.56276,-0.22479 0.56223,0.22479 a 0.26460979,0.26460979 0 0 0 0.36329,-0.24649 v -0.52917 a 0.26460979,0.26460979 0 0 1 -0.36329,0.2465 l -0.56223,-0.2248 -0.56276,0.2248 a 0.26460979,0.26460979 0 0 1 -0.36329,-0.2465 z"></path>
  <path fill="#3588cb" d="m 1.50533,15.3453 a 0.79374994,0.79374994 0 0 0 -0.032,0.22169 0.79374994,0.79374994 0 0 0 0.0625,0.30748 h 1.46296 a 0.79374994,0.79374994 0 0 0 0.062,-0.30748 0.79374994,0.79374994 0 0 0 -0.0326,-0.22169 z"></path>
  <path fill="#549ad4" d="m 3.1750013,15.61041 c 0,0.438376 -0.355374,0.79375 -0.79375,0.79375 -0.438376,0 -0.7937499,-0.355374 -0.7937499,-0.79375 0,-0.438376 0.3553739,-0.79375 0.7937499,-0.79375 0.438376,0 0.79375,0.355374 0.79375,0.79375 z"></path>
  <path fill="#3588cb" d="m 2.64581,15.08124 c 0,0.438376 -0.355374,0.79375 -0.79375,0.79375 -0.077936,-1.81e-4 -0.155421,-0.01184 -0.22996,-0.0346 0.10128,0.334595 0.4095427,0.563535 0.75913,0.56379 0.438376,0 0.79375,-0.355374 0.79375,-0.79375 -2.549e-4,-0.349587 -0.2291952,-0.65785 -0.56378,-0.759145 0.022771,0.07453 0.03443,0.152015 0.03461,0.229955 z"></path>
  <path fill="#e4eff8" d="m 2.6458349,15.61041 c -3e-7,0.146125 -0.1184583,0.264583 -0.2645836,0.264583 -0.1461252,0 -0.2645832,-0.118458 -0.2645835,-0.264583 -3e-7,-0.146126 0.1184579,-0.264584 0.2645835,-0.264584 0.1461257,0 0.2645839,0.118458 0.2645836,0.264584 z"></path>
  <path fill="#c4dcf0" d="M2.19366 15.79695c.049659.04993.1171717.078.18759.078.1461227-.000002.264578-.118457.26458-.26458-.0001357-.07049-.028392-.138006-.07852-.187565-.078146.163761-.2100091.2958-.37365.374145zM6.08645 12.43644c-.14612-.00056-.26503.11743-.26562.26355v1.05885c.00059.14612.1195.2641.26562.26355H6.35v-.79324c.00058-.14612.1195-.2641.26562-.26355h.63303c.008 0 .0153.004.0233.005L6.90711 12.51482c-.0497-.0499-.11716-.078-.18758-.078z"></path>
</svg>
